# File produced by Open Asset Import Library (http://www.assimp.sf.net)
# (assimp v3.0.1262)

mtllib tool_yaw_link.stl.obj.mtl

# 288 vertex positions
v  -0.000593054 -0.000266059 0.00245
v  -0.000623758 -0.000182826 0.00245
v  -0.000623758 -0.000182826 -0.00255
v  -0.000623758 -0.000182826 -0.00255
v  -0.000623758 -0.000182826 0.00245
v  -0.000642843 -9.61886e-05 -0.00255
v  -0.000623758 -0.000182826 0.00245
v  -0.000642843 -9.61886e-05 0.00245
v  -0.000642843 -9.61886e-05 -0.00255
v  -0.000642843 -9.61886e-05 -0.00255
v  -0.000642843 -9.61886e-05 0.00245
v  -0.000644956 8.08155e-05 0.00245
v  -0.000642843 -9.61886e-05 -0.00255
v  -0.000644956 8.08155e-05 0.00245
v  -0.000644956 8.08155e-05 -0.00255
v  -0.000644956 8.08155e-05 -0.00255
v  -0.000644956 8.08155e-05 0.00245
v  -0.000599236 0.000251826 0.00245
v  -0.000644956 8.08155e-05 -0.00255
v  -0.000599236 0.000251826 0.00245
v  -0.000599236 0.000251826 -0.00255
v  -0.000599236 0.000251826 -0.00255
v  -0.000599236 0.000251826 0.00245
v  -0.000509073 0.000404159 0.00245
v  -0.000599236 0.000251826 -0.00255
v  -0.000509073 0.000404159 0.00245
v  -0.000509073 0.000404159 -0.00255
v  -0.000509073 0.000404159 -0.00255
v  -0.000509073 0.000404159 0.00245
v  -0.000381154 0.000526518 0.00245
v  -0.000509073 0.000404159 -0.00255
v  -0.000381154 0.000526518 0.00245
v  -0.000381154 0.000526518 -0.00255
v  -0.000381154 0.000526518 -0.00255
v  -0.000381154 0.000526518 0.00245
v  -0.000224967 0.000609828 0.00245
v  -0.000381154 0.000526518 -0.00255
v  -0.000224967 0.000609828 0.00245
v  -0.000224967 0.000609828 -0.00255
v  -0.000224967 0.000609828 -0.00255
v  -0.000224967 0.000609828 0.00245
v  -5.20951e-05 0.000647909 0.00245
v  -0.000224967 0.000609828 -0.00255
v  -5.20951e-05 0.000647909 0.00245
v  -5.20951e-05 0.000647909 -0.00255
v  -5.20951e-05 0.000647909 -0.00255
v  -5.20951e-05 0.000647909 0.00245
v  0.00012464 0.000637938 0.00245
v  -5.20951e-05 0.000647909 -0.00255
v  0.00012464 0.000637938 0.00245
v  0.00012464 0.000637938 -0.00255
v  0.00012464 0.000637938 -0.00255
v  0.00012464 0.000637938 0.00245
v  0.000292132 0.000580654 0.00245
v  0.00012464 0.000637938 -0.00255
v  0.000292132 0.000580654 0.00245
v  0.000292132 0.000580654 -0.00255
v  0.000292132 0.000580654 -0.00255
v  0.000292132 0.000580654 0.00245
v  0.000437958 0.000480305 0.00245
v  0.000292132 0.000580654 -0.00255
v  0.000437958 0.000480305 0.00245
v  0.000437958 0.000480305 -0.00255
v  0.000437958 0.000480305 -0.00255
v  0.000437958 0.000480305 0.00245
v  0.000551302 0.000344335 0.00245
v  0.000437958 0.000480305 -0.00255
v  0.000551302 0.000344335 0.00245
v  0.000551302 0.000344335 -0.00255
v  0.000551302 0.000344335 -0.00255
v  0.000551302 0.000344335 0.00245
v  0.000623758 0.000182826 0.00245
v  0.000551302 0.000344335 -0.00255
v  0.000623758 0.000182826 0.00245
v  0.000623758 0.000182826 -0.00255
v  0.000623758 0.000182826 -0.00255
v  0.000623758 0.000182826 0.00245
v  0.000649954 7.75881e-06 0.00245
v  0.000623758 0.000182826 -0.00255
v  0.000649954 7.75881e-06 0.00245
v  0.000649954 7.75881e-06 -0.00255
v  0.000649954 7.75881e-06 -0.00255
v  0.000649954 7.75881e-06 0.00245
v  0.000627945 -0.000167884 0.00245
v  0.000649954 7.75881e-06 -0.00255
v  0.000627945 -0.000167884 0.00245
v  0.000627945 -0.000167884 -0.00255
v  0.000627945 -0.000167884 -0.00255
v  0.000627945 -0.000167884 0.00245
v  0.000559364 -0.000331076 0.00245
v  0.000627945 -0.000167884 -0.00255
v  0.000559364 -0.000331076 0.00245
v  0.000559364 -0.000331076 -0.00255
v  0.000559364 -0.000331076 -0.00255
v  0.000559364 -0.000331076 0.00245
v  0.000449298 -0.000469714 0.00245
v  0.000559364 -0.000331076 -0.00255
v  0.000449298 -0.000469714 0.00245
v  0.000449298 -0.000469714 -0.00255
v  0.000449298 -0.000469714 -0.00255
v  0.000449298 -0.000469714 0.00245
v  0.00030591 -0.000573515 0.00245
v  0.000449298 -0.000469714 -0.00255
v  0.00030591 -0.000573515 0.00245
v  0.00030591 -0.000573515 -0.00255
v  0.00030591 -0.000573515 -0.00255
v  0.00030591 -0.000573515 0.00245
v  0.000139834 -0.000634781 0.00245
v  0.00030591 -0.000573515 -0.00255
v  0.000139834 -0.000634781 0.00245
v  0.000139834 -0.000634781 -0.00255
v  0.000139834 -0.000634781 -0.00255
v  0.000139834 -0.000634781 0.00245
v  -3.66137e-05 -0.000648968 0.00245
v  0.000139834 -0.000634781 -0.00255
v  -3.66137e-05 -0.000648968 0.00245
v  -3.66137e-05 -0.000648968 -0.00255
v  -3.66137e-05 -0.000648968 -0.00255
v  -3.66137e-05 -0.000648968 0.00245
v  -0.000210345 -0.000615024 0.00245
v  -3.66137e-05 -0.000648968 -0.00255
v  -0.000210345 -0.000615024 0.00245
v  -0.000210345 -0.000615024 -0.00255
v  -0.000210345 -0.000615024 -0.00255
v  -0.000210345 -0.000615024 0.00245
v  -0.000368477 -0.000535467 0.00245
v  -0.000210345 -0.000615024 -0.00255
v  -0.000368477 -0.000535467 0.00245
v  -0.000368477 -0.000535467 -0.00255
v  -0.000368477 -0.000535467 -0.00255
v  -0.000368477 -0.000535467 0.00245
v  -0.00049928 -0.000416197 0.00245
v  -0.000368477 -0.000535467 -0.00255
v  -0.00049928 -0.000416197 0.00245
v  -0.00049928 -0.000416197 -0.00255
v  -0.00049928 -0.000416197 -0.00255
v  -0.00049928 -0.000416197 0.00245
v  -0.000593054 -0.000266059 0.00245
v  -0.00049928 -0.000416197 -0.00255
v  -0.000593054 -0.000266059 0.00245
v  -0.000593054 -0.000266059 -0.00255
v  -0.000593054 -0.000266059 -0.00255
v  -0.000593054 -0.000266059 0.00245
v  -0.000623758 -0.000182826 -0.00255
v  -0.000644956 8.08155e-05 0.00245
v  -0.000642843 -9.61886e-05 0.00245
v  -4.35418e-15 6.7335e-14 0.00245
v  -4.35418e-15 6.7335e-14 0.00245
v  -0.000642843 -9.61886e-05 0.00245
v  -0.000623758 -0.000182826 0.00245
v  -4.35418e-15 6.7335e-14 0.00245
v  -0.000623758 -0.000182826 0.00245
v  -0.000593054 -0.000266059 0.00245
v  -0.000381154 0.000526518 0.00245
v  -0.000509073 0.000404159 0.00245
v  -4.35418e-15 6.7335e-14 0.00245
v  -4.35418e-15 6.7335e-14 0.00245
v  -0.000509073 0.000404159 0.00245
v  -0.000599236 0.000251826 0.00245
v  -4.35418e-15 6.7335e-14 0.00245
v  -0.000599236 0.000251826 0.00245
v  -0.000644956 8.08155e-05 0.00245
v  0.00012464 0.000637938 0.00245
v  -5.20951e-05 0.000647909 0.00245
v  -4.35418e-15 6.7335e-14 0.00245
v  -4.35418e-15 6.7335e-14 0.00245
v  -5.20951e-05 0.000647909 0.00245
v  -0.000224967 0.000609828 0.00245
v  -4.35418e-15 6.7335e-14 0.00245
v  -0.000224967 0.000609828 0.00245
v  -0.000381154 0.000526518 0.00245
v  0.000551302 0.000344335 0.00245
v  0.000437958 0.000480305 0.00245
v  -4.35418e-15 6.7335e-14 0.00245
v  -4.35418e-15 6.7335e-14 0.00245
v  0.000437958 0.000480305 0.00245
v  0.000292132 0.000580654 0.00245
v  -4.35418e-15 6.7335e-14 0.00245
v  0.000292132 0.000580654 0.00245
v  0.00012464 0.000637938 0.00245
v  0.000627945 -0.000167884 0.00245
v  0.000649954 7.75881e-06 0.00245
v  -4.35418e-15 6.7335e-14 0.00245
v  -4.35418e-15 6.7335e-14 0.00245
v  0.000649954 7.75881e-06 0.00245
v  0.000623758 0.000182826 0.00245
v  -4.35418e-15 6.7335e-14 0.00245
v  0.000623758 0.000182826 0.00245
v  0.000551302 0.000344335 0.00245
v  0.00030591 -0.000573515 0.00245
v  0.000449298 -0.000469714 0.00245
v  -4.35418e-15 6.7335e-14 0.00245
v  -4.35418e-15 6.7335e-14 0.00245
v  0.000449298 -0.000469714 0.00245
v  0.000559364 -0.000331076 0.00245
v  -4.35418e-15 6.7335e-14 0.00245
v  0.000559364 -0.000331076 0.00245
v  0.000627945 -0.000167884 0.00245
v  -0.000210345 -0.000615024 0.00245
v  -3.66137e-05 -0.000648968 0.00245
v  -4.35418e-15 6.7335e-14 0.00245
v  -4.35418e-15 6.7335e-14 0.00245
v  -3.66137e-05 -0.000648968 0.00245
v  0.000139834 -0.000634781 0.00245
v  -4.35418e-15 6.7335e-14 0.00245
v  0.000139834 -0.000634781 0.00245
v  0.00030591 -0.000573515 0.00245
v  -0.000593054 -0.000266059 0.00245
v  -0.00049928 -0.000416197 0.00245
v  -4.35418e-15 6.7335e-14 0.00245
v  -4.35418e-15 6.7335e-14 0.00245
v  -0.00049928 -0.000416197 0.00245
v  -0.000368477 -0.000535467 0.00245
v  -4.35418e-15 6.7335e-14 0.00245
v  -0.000368477 -0.000535467 0.00245
v  -0.000210345 -0.000615024 0.00245
v  -0.00049928 -0.000416197 -0.00255
v  -0.000593054 -0.000266059 -0.00255
v  2.60712e-15 6.75016e-14 -0.00255
v  2.60712e-15 6.75016e-14 -0.00255
v  -0.000593054 -0.000266059 -0.00255
v  -0.000623758 -0.000182826 -0.00255
v  2.60712e-15 6.75016e-14 -0.00255
v  -0.000623758 -0.000182826 -0.00255
v  -0.000642843 -9.61886e-05 -0.00255
v  -3.66137e-05 -0.000648968 -0.00255
v  -0.000210345 -0.000615024 -0.00255
v  2.60712e-15 6.75016e-14 -0.00255
v  2.60712e-15 6.75016e-14 -0.00255
v  -0.000210345 -0.000615024 -0.00255
v  -0.000368477 -0.000535467 -0.00255
v  2.60712e-15 6.75016e-14 -0.00255
v  -0.000368477 -0.000535467 -0.00255
v  -0.00049928 -0.000416197 -0.00255
v  0.000449298 -0.000469714 -0.00255
v  0.00030591 -0.000573515 -0.00255
v  2.60712e-15 6.75016e-14 -0.00255
v  2.60712e-15 6.75016e-14 -0.00255
v  0.00030591 -0.000573515 -0.00255
v  0.000139834 -0.000634781 -0.00255
v  2.60712e-15 6.75016e-14 -0.00255
v  0.000139834 -0.000634781 -0.00255
v  -3.66137e-05 -0.000648968 -0.00255
v  0.000649954 7.75881e-06 -0.00255
v  0.000627945 -0.000167884 -0.00255
v  2.60712e-15 6.75016e-14 -0.00255
v  2.60712e-15 6.75016e-14 -0.00255
v  0.000627945 -0.000167884 -0.00255
v  0.000559364 -0.000331076 -0.00255
v  2.60712e-15 6.75016e-14 -0.00255
v  0.000559364 -0.000331076 -0.00255
v  0.000449298 -0.000469714 -0.00255
v  0.000437958 0.000480305 -0.00255
v  0.000551302 0.000344335 -0.00255
v  2.60712e-15 6.75016e-14 -0.00255
v  2.60712e-15 6.75016e-14 -0.00255
v  0.000551302 0.000344335 -0.00255
v  0.000623758 0.000182826 -0.00255
v  2.60712e-15 6.75016e-14 -0.00255
v  0.000623758 0.000182826 -0.00255
v  0.000649954 7.75881e-06 -0.00255
v  -5.20951e-05 0.000647909 -0.00255
v  0.00012464 0.000637938 -0.00255
v  2.60712e-15 6.75016e-14 -0.00255
v  2.60712e-15 6.75016e-14 -0.00255
v  0.00012464 0.000637938 -0.00255
v  0.000292132 0.000580654 -0.00255
v  2.60712e-15 6.75016e-14 -0.00255
v  0.000292132 0.000580654 -0.00255
v  0.000437958 0.000480305 -0.00255
v  -0.000509073 0.000404159 -0.00255
v  -0.000381154 0.000526518 -0.00255
v  2.60712e-15 6.75016e-14 -0.00255
v  2.60712e-15 6.75016e-14 -0.00255
v  -0.000381154 0.000526518 -0.00255
v  -0.000224967 0.000609828 -0.00255
v  2.60712e-15 6.75016e-14 -0.00255
v  -0.000224967 0.000609828 -0.00255
v  -5.20951e-05 0.000647909 -0.00255
v  -0.000642843 -9.61886e-05 -0.00255
v  -0.000644956 8.08155e-05 -0.00255
v  2.60712e-15 6.75016e-14 -0.00255
v  2.60712e-15 6.75016e-14 -0.00255
v  -0.000644956 8.08155e-05 -0.00255
v  -0.000599236 0.000251826 -0.00255
v  2.60712e-15 6.75016e-14 -0.00255
v  -0.000599236 0.000251826 -0.00255
v  -0.000509073 0.000404159 -0.00255

# 0 UV coordinates

# 288 vertex normals
vn -0.945842 -0.324627 -1.32851e-12
vn -0.945842 -0.324627 -1.32851e-12
vn -0.945842 -0.324627 -1.32851e-12
vn -0.971428 -0.237334 -1.361e-12
vn -0.971428 -0.237334 -1.361e-12
vn -0.971428 -0.237334 -1.361e-12
vn -0.981236 -0.192812 -1.37306e-12
vn -0.981236 -0.192812 -1.37306e-12
vn -0.981236 -0.192812 -1.37306e-12
vn -0.998335 -0.0576885 -1.39201e-12
vn -0.998335 -0.0576885 -1.39201e-12
vn -0.998335 -0.0576885 -1.39201e-12
vn -0.999427 0.0338402 -1.39025e-12
vn -0.999427 0.0338402 -1.39025e-12
vn -0.999427 0.0338402 -1.39025e-12
vn -0.976878 0.213798 -1.3524e-12
vn -0.976878 0.213798 -1.3524e-12
vn -0.976878 0.213798 -1.3524e-12
vn -0.953236 0.302228 -1.31631e-12
vn -0.953236 0.302228 -1.31631e-12
vn -0.953236 0.302228 -1.31631e-12
vn -0.88297 0.469429 -1.21248e-12
vn -0.88297 0.469429 -1.21248e-12
vn -0.88297 0.469429 -1.21248e-12
vn -0.836347 0.5482 -1.14474e-12
vn -0.836347 0.5482 -1.14474e-12
vn -0.836347 0.5482 -1.14474e-12
vn -0.723577 0.690243 -9.82637e-13
vn -0.723577 0.690243 -9.82637e-13
vn -0.723577 0.690243 -9.82637e-13
vn -0.657431 0.753515 -8.88273e-13
vn -0.657431 0.753515 -8.88273e-13
vn -0.657431 0.753515 -8.88273e-13
vn -0.51052 0.859866 -6.79918e-13
vn -0.51052 0.859866 -6.79918e-13
vn -0.51052 0.859866 -6.79918e-13
vn -0.429755 0.902945 -5.65927e-13
vn -0.429755 0.902945 -5.65927e-13
vn -0.429755 0.902945 -5.65927e-13
vn -0.259599 0.965716 -3.26773e-13
vn -0.259599 0.965716 -3.26773e-13
vn -0.259599 0.965716 -3.26773e-13
vn -0.170207 0.985408 -2.01609e-13
vn -0.170207 0.985408 -2.01609e-13
vn -0.170207 0.985408 -2.01609e-13
vn 0.0105748 0.999944 5.06082e-14
vn 0.0105748 0.999944 5.06082e-14
vn 0.0105748 0.999944 5.06082e-14
vn 0.101965 0.994788 1.77662e-13
vn 0.101965 0.994788 1.77662e-13
vn 0.101965 0.994788 1.77662e-13
vn 0.279964 0.96001 4.24236e-13
vn 0.279964 0.96001 4.24236e-13
vn 0.279964 0.96001 4.24236e-13
vn 0.366574 0.930389 5.43756e-13
vn 0.366574 0.930389 5.43756e-13
vn 0.366574 0.930389 5.43756e-13
vn 0.52859 0.848877 7.66399e-13
vn 0.52859 0.848877 7.66399e-13
vn 0.52859 0.848877 7.66399e-13
vn 0.603996 0.796987 8.69522e-13
vn 0.603996 0.796987 8.69522e-13
vn 0.603996 0.796987 8.69522e-13
vn 0.738013 0.674787 1.05172e-12
vn 0.738013 0.674787 1.05172e-12
vn 0.738013 0.674787 1.05172e-12
vn 0.796623 0.604476 1.1308e-12
vn 0.796623 0.604476 1.1308e-12
vn 0.796623 0.604476 1.1308e-12
vn 0.892701 0.45065 1.25904e-12
vn 0.892701 0.45065 1.25904e-12
vn 0.892701 0.45065 1.25904e-12
vn 0.930168 0.367134 1.30821e-12
vn 0.930168 0.367134 1.30821e-12
vn 0.930168 0.367134 1.30821e-12
vn 0.981181 0.193091 1.37299e-12
vn 0.981181 0.193091 1.37299e-12
vn 0.981181 0.193091 1.37299e-12
vn 0.994726 0.102564 1.3886e-12
vn 0.994726 0.102564 1.3886e-12
vn 0.994726 0.102564 1.3886e-12
vn 0.996891 -0.0787887 1.3851e-12
vn 0.996891 -0.0787887 1.3851e-12
vn 0.996891 -0.0787887 1.3851e-12
vn 0.985511 -0.169614 1.366e-12
vn 0.985511 -0.169614 1.366e-12
vn 0.985511 -0.169614 1.366e-12
vn 0.938667 -0.344825 1.29449e-12
vn 0.938667 -0.344825 1.29449e-12
vn 0.938667 -0.344825 1.29449e-12
vn 0.903204 -0.429211 1.24209e-12
vn 0.903204 -0.429211 1.24209e-12
vn 0.903204 -0.429211 1.24209e-12
vn 0.810826 -0.585287 1.10788e-12
vn 0.810826 -0.585287 1.10788e-12
vn 0.810826 -0.585287 1.10788e-12
vn 0.753911 -0.656977 1.02606e-12
vn 0.753911 -0.656977 1.02606e-12
vn 0.753911 -0.656977 1.02606e-12
vn 0.62285 -0.782342 8.39093e-13
vn 0.62285 -0.782342 8.39093e-13
vn 0.62285 -0.782342 8.39093e-13
vn 0.548704 -0.836017 7.33936e-13
vn 0.548704 -0.836017 7.33936e-13
vn 0.548704 -0.836017 7.33936e-13
vn 0.38868 -0.921373 5.08078e-13
vn 0.38868 -0.921373 5.08078e-13
vn 0.38868 -0.921373 5.08078e-13
vn 0.302801 -0.953054 3.87376e-13
vn 0.302801 -0.953054 3.87376e-13
vn 0.302801 -0.953054 3.87376e-13
vn 0.125683 -0.99207 1.3938e-13
vn 0.125683 -0.99207 1.3938e-13
vn 0.125683 -0.99207 1.3938e-13
vn 0.034442 -0.999407 1.20863e-14
vn 0.034442 -0.999407 1.20863e-14
vn 0.034442 -0.999407 1.20863e-14
vn -0.146635 -0.989191 -2.39654e-13
vn -0.146635 -0.989191 -2.39654e-13
vn -0.146635 -0.989191 -2.39654e-13
vn -0.236472 -0.971638 -3.641e-13
vn -0.236472 -0.971638 -3.641e-13
vn -0.236472 -0.971638 -3.641e-13
vn -0.408078 -0.912947 -6.00914e-13
vn -0.408078 -0.912947 -6.00914e-13
vn -0.408078 -0.912947 -6.00914e-13
vn -0.489848 -0.871808 -7.13283e-13
vn -0.489848 -0.871808 -7.13283e-13
vn -0.489848 -0.871808 -7.13283e-13
vn -0.639256 -0.768994 -9.17607e-13
vn -0.639256 -0.768994 -9.17607e-13
vn -0.639256 -0.768994 -9.17607e-13
vn -0.706894 -0.70732 -1.00956e-12
vn -0.706894 -0.70732 -1.00956e-12
vn -0.706894 -0.70732 -1.00956e-12
vn -0.823022 -0.568009 -1.16625e-12
vn -0.823022 -0.568009 -1.16625e-12
vn -0.823022 -0.568009 -1.16625e-12
vn -0.871513 -0.490373 -1.23097e-12
vn -0.871513 -0.490373 -1.23097e-12
vn -0.871513 -0.490373 -1.23097e-12
vn -0.930063 -0.367399 -1.30808e-12
vn -0.930063 -0.367399 -1.30808e-12
vn -0.930063 -0.367399 -1.30808e-12
vn -1.39226e-12 -3.58873e-14 1
vn -1.39226e-12 -3.58873e-14 1
vn -1.39226e-12 -3.58873e-14 1
vn -1.39226e-12 -3.58873e-14 1
vn -1.39226e-12 -3.58873e-14 1
vn -1.39226e-12 -3.58873e-14 1
vn -1.39226e-12 -3.58873e-14 1
vn -1.39226e-12 -3.58873e-14 1
vn -1.39226e-12 -3.58873e-14 1
vn -1.39226e-12 -3.58873e-14 1
vn -1.39226e-12 -3.58873e-14 1
vn -1.39226e-12 -3.58873e-14 1
vn -1.39226e-12 -3.58873e-14 1
vn -1.39226e-12 -3.58873e-14 1
vn -1.39226e-12 -3.58873e-14 1
vn -1.39226e-12 -3.58873e-14 1
vn -1.39226e-12 -3.58873e-14 1
vn -1.39226e-12 -3.58873e-14 1
vn -1.39226e-12 -3.58873e-14 1
vn -1.39226e-12 -3.58873e-14 1
vn -1.39226e-12 -3.58873e-14 1
vn -1.39226e-12 -3.58873e-14 1
vn -1.39226e-12 -3.58873e-14 1
vn -1.39226e-12 -3.58873e-14 1
vn -1.39226e-12 -3.58873e-14 1
vn -1.39226e-12 -3.58873e-14 1
vn -1.39226e-12 -3.58873e-14 1
vn -1.39226e-12 -3.58873e-14 1
vn -1.39226e-12 -3.58873e-14 1
vn -1.39226e-12 -3.58873e-14 1
vn -1.39226e-12 -3.58873e-14 1
vn -1.39226e-12 -3.58873e-14 1
vn -1.39226e-12 -3.58873e-14 1
vn -1.39226e-12 -3.58873e-14 1
vn -1.39226e-12 -3.58873e-14 1
vn -1.39226e-12 -3.58873e-14 1
vn -1.39226e-12 -3.58873e-14 1
vn -1.39226e-12 -3.58873e-14 1
vn -1.39226e-12 -3.58873e-14 1
vn -1.39226e-12 -3.58873e-14 1
vn -1.39226e-12 -3.58873e-14 1
vn -1.39226e-12 -3.58873e-14 1
vn -1.39226e-12 -3.58873e-14 1
vn -1.39226e-12 -3.58873e-14 1
vn -1.39226e-12 -3.58873e-14 1
vn -1.39226e-12 -3.58873e-14 1
vn -1.39226e-12 -3.58873e-14 1
vn -1.39226e-12 -3.58873e-14 1
vn -1.39226e-12 -3.58873e-14 1
vn -1.39226e-12 -3.58873e-14 1
vn -1.39226e-12 -3.58873e-14 1
vn -1.39226e-12 -3.58873e-14 1
vn -1.39226e-12 -3.58873e-14 1
vn -1.39226e-12 -3.58873e-14 1
vn -1.39226e-12 -3.58873e-14 1
vn -1.39226e-12 -3.58873e-14 1
vn -1.39226e-12 -3.58873e-14 1
vn -1.39226e-12 -3.58873e-14 1
vn -1.39226e-12 -3.58873e-14 1
vn -1.39226e-12 -3.58873e-14 1
vn -1.39226e-12 -3.58873e-14 1
vn -1.39226e-12 -3.58873e-14 1
vn -1.39226e-12 -3.58873e-14 1
vn -1.39226e-12 -3.58873e-14 1
vn -1.39226e-12 -3.58873e-14 1
vn -1.39226e-12 -3.58873e-14 1
vn -1.39226e-12 -3.58873e-14 1
vn -1.39226e-12 -3.58873e-14 1
vn -1.39226e-12 -3.58873e-14 1
vn -1.39226e-12 -3.58873e-14 1
vn -1.39226e-12 -3.58873e-14 1
vn -1.39226e-12 -3.58873e-14 1
vn 1.39226e-12 3.58873e-14 -1
vn 1.39226e-12 3.58873e-14 -1
vn 1.39226e-12 3.58873e-14 -1
vn 1.39226e-12 3.58873e-14 -1
vn 1.39226e-12 3.58873e-14 -1
vn 1.39226e-12 3.58873e-14 -1
vn 1.39226e-12 3.58873e-14 -1
vn 1.39226e-12 3.58873e-14 -1
vn 1.39226e-12 3.58873e-14 -1
vn 1.39226e-12 3.58873e-14 -1
vn 1.39226e-12 3.58873e-14 -1
vn 1.39226e-12 3.58873e-14 -1
vn 1.39226e-12 3.58873e-14 -1
vn 1.39226e-12 3.58873e-14 -1
vn 1.39226e-12 3.58873e-14 -1
vn 1.39226e-12 3.58873e-14 -1
vn 1.39226e-12 3.58873e-14 -1
vn 1.39226e-12 3.58873e-14 -1
vn 1.39226e-12 3.58873e-14 -1
vn 1.39226e-12 3.58873e-14 -1
vn 1.39226e-12 3.58873e-14 -1
vn 1.39226e-12 3.58873e-14 -1
vn 1.39226e-12 3.58873e-14 -1
vn 1.39226e-12 3.58873e-14 -1
vn 1.39226e-12 3.58873e-14 -1
vn 1.39226e-12 3.58873e-14 -1
vn 1.39226e-12 3.58873e-14 -1
vn 1.39226e-12 3.58873e-14 -1
vn 1.39226e-12 3.58873e-14 -1
vn 1.39226e-12 3.58873e-14 -1
vn 1.39226e-12 3.58873e-14 -1
vn 1.39226e-12 3.58873e-14 -1
vn 1.39226e-12 3.58873e-14 -1
vn 1.39226e-12 3.58873e-14 -1
vn 1.39226e-12 3.58873e-14 -1
vn 1.39226e-12 3.58873e-14 -1
vn 1.39226e-12 3.58873e-14 -1
vn 1.39226e-12 3.58873e-14 -1
vn 1.39226e-12 3.58873e-14 -1
vn 1.39226e-12 3.58873e-14 -1
vn 1.39226e-12 3.58873e-14 -1
vn 1.39226e-12 3.58873e-14 -1
vn 1.39226e-12 3.58873e-14 -1
vn 1.39226e-12 3.58873e-14 -1
vn 1.39226e-12 3.58873e-14 -1
vn 1.39226e-12 3.58873e-14 -1
vn 1.39226e-12 3.58873e-14 -1
vn 1.39226e-12 3.58873e-14 -1
vn 1.39226e-12 3.58873e-14 -1
vn 1.39226e-12 3.58873e-14 -1
vn 1.39226e-12 3.58873e-14 -1
vn 1.39226e-12 3.58873e-14 -1
vn 1.39226e-12 3.58873e-14 -1
vn 1.39226e-12 3.58873e-14 -1
vn 1.39226e-12 3.58873e-14 -1
vn 1.39226e-12 3.58873e-14 -1
vn 1.39226e-12 3.58873e-14 -1
vn 1.39226e-12 3.58873e-14 -1
vn 1.39226e-12 3.58873e-14 -1
vn 1.39226e-12 3.58873e-14 -1
vn 1.39226e-12 3.58873e-14 -1
vn 1.39226e-12 3.58873e-14 -1
vn 1.39226e-12 3.58873e-14 -1
vn 1.39226e-12 3.58873e-14 -1
vn 1.39226e-12 3.58873e-14 -1
vn 1.39226e-12 3.58873e-14 -1
vn 1.39226e-12 3.58873e-14 -1
vn 1.39226e-12 3.58873e-14 -1
vn 1.39226e-12 3.58873e-14 -1
vn 1.39226e-12 3.58873e-14 -1
vn 1.39226e-12 3.58873e-14 -1
vn 1.39226e-12 3.58873e-14 -1

# Mesh '<STL_BINARY>' with 96 faces
g <STL_BINARY>
usemtl DefaultMaterial
f  1//1 2//2 3//3
f  4//4 5//5 6//6
f  7//7 8//8 9//9
f  10//10 11//11 12//12
f  13//13 14//14 15//15
f  16//16 17//17 18//18
f  19//19 20//20 21//21
f  22//22 23//23 24//24
f  25//25 26//26 27//27
f  28//28 29//29 30//30
f  31//31 32//32 33//33
f  34//34 35//35 36//36
f  37//37 38//38 39//39
f  40//40 41//41 42//42
f  43//43 44//44 45//45
f  46//46 47//47 48//48
f  49//49 50//50 51//51
f  52//52 53//53 54//54
f  55//55 56//56 57//57
f  58//58 59//59 60//60
f  61//61 62//62 63//63
f  64//64 65//65 66//66
f  67//67 68//68 69//69
f  70//70 71//71 72//72
f  73//73 74//74 75//75
f  76//76 77//77 78//78
f  79//79 80//80 81//81
f  82//82 83//83 84//84
f  85//85 86//86 87//87
f  88//88 89//89 90//90
f  91//91 92//92 93//93
f  94//94 95//95 96//96
f  97//97 98//98 99//99
f  100//100 101//101 102//102
f  103//103 104//104 105//105
f  106//106 107//107 108//108
f  109//109 110//110 111//111
f  112//112 113//113 114//114
f  115//115 116//116 117//117
f  118//118 119//119 120//120
f  121//121 122//122 123//123
f  124//124 125//125 126//126
f  127//127 128//128 129//129
f  130//130 131//131 132//132
f  133//133 134//134 135//135
f  136//136 137//137 138//138
f  139//139 140//140 141//141
f  142//142 143//143 144//144
f  145//145 146//146 147//147
f  148//148 149//149 150//150
f  151//151 152//152 153//153
f  154//154 155//155 156//156
f  157//157 158//158 159//159
f  160//160 161//161 162//162
f  163//163 164//164 165//165
f  166//166 167//167 168//168
f  169//169 170//170 171//171
f  172//172 173//173 174//174
f  175//175 176//176 177//177
f  178//178 179//179 180//180
f  181//181 182//182 183//183
f  184//184 185//185 186//186
f  187//187 188//188 189//189
f  190//190 191//191 192//192
f  193//193 194//194 195//195
f  196//196 197//197 198//198
f  199//199 200//200 201//201
f  202//202 203//203 204//204
f  205//205 206//206 207//207
f  208//208 209//209 210//210
f  211//211 212//212 213//213
f  214//214 215//215 216//216
f  217//217 218//218 219//219
f  220//220 221//221 222//222
f  223//223 224//224 225//225
f  226//226 227//227 228//228
f  229//229 230//230 231//231
f  232//232 233//233 234//234
f  235//235 236//236 237//237
f  238//238 239//239 240//240
f  241//241 242//242 243//243
f  244//244 245//245 246//246
f  247//247 248//248 249//249
f  250//250 251//251 252//252
f  253//253 254//254 255//255
f  256//256 257//257 258//258
f  259//259 260//260 261//261
f  262//262 263//263 264//264
f  265//265 266//266 267//267
f  268//268 269//269 270//270
f  271//271 272//272 273//273
f  274//274 275//275 276//276
f  277//277 278//278 279//279
f  280//280 281//281 282//282
f  283//283 284//284 285//285
f  286//286 287//287 288//288

